<?xml version="1.0" standalone="no"?>
<!DOCTYPE svg PUBLIC "-//W3C//DTD SVG 20010904//EN"
 "http://www.w3.org/TR/2001/REC-SVG-20010904/DTD/svg10.dtd">
<svg version="1.0" xmlns="http://www.w3.org/2000/svg"
 width="387.000000pt" height="387.000000pt" viewBox="0 0 387.000000 387.000000"
 preserveAspectRatio="xMidYMid meet">
<metadata>
Created by potrace 1.14, written by Peter Selinger 2001-2017
</metadata>
<g transform="translate(0.000000,387.000000) scale(0.100000,-0.100000)"
fill="#000000" stroke="none">
<path d="M1129 2997 c-48 -84 -196 -341 -330 -572 -133 -231 -252 -436 -262
-455 l-20 -36 119 -205 c65 -113 223 -386 349 -607 l230 -401 705 0 705 0 230
401 c127 221 281 489 344 597 62 108 115 201 118 208 2 6 -116 220 -263 475
-147 254 -304 527 -348 605 l-81 142 -705 0 -705 0 -86 -152z m1596 -249 c93
-161 223 -387 290 -503 67 -115 134 -233 150 -261 l28 -51 -318 -551 -319
-552 -636 0 -636 0 -186 323 c-103 177 -243 421 -313 542 -70 120 -129 225
-132 232 -3 6 138 260 313 563 l318 550 636 0 637 0 168 -292z"/>
</g>
</svg>
